# xmcd CD database file
# Copyright (C) 1993-1996 Ti Kan
#
# Track frame offsets:
#	150
#	13650
#	33575
#	46998
#	59650
#	68375
#	88115
#	97583
#	113913
#	124570
#	142370
#	156995
#	172060
#	185138
#	204823
#	214118
#
# Disc length: 2998 seconds
#
# Revision: 1
# Processed by: cddbd v1.4b41PL1 Copyright (c) Steve Scherf et al.
# Submitted via: xmcd 2.0
#
DISCID=e40bb410
DTITLE=various  - Blue Ivory
DYEAR=1900
DGENRE=
TTITLE0=Mr. B. - Cow Cow Blues
TTITLE1=Mr. B  - J.C.'s Blues
TTITLE2=Henry Gray  - Lucky, Lucky Man
TTITLE3=Boogie Woogie Red  - Old Time Shuffle
TTITLE4=Roosevelt Sykes  - Viper Song
TTITLE5=Mr. B  - Little Brother
TTITLE6=Henry Gray  - I'm Talking About You
TTITLE7=Roosevelt Sykes  - Too Smart Too Soon
TTITLE8=Nr. B  - Thunder and Lightning Boogie
TTITLE9=Mr. B  - When I Lost My Baby
TTITLE10=Henry Gray  - Finger Snappin' Boogie
TTITLE11=Roosevelt Sykes   -  Early Morning Blues
TTITLE12=Boogie Woogie Red  - Red's Boogie
TTITLE13=Mr. B  - You Don't Know My Mind
TTITLE14=Boogie Woogie Red  - Red's Rumba
TTITLE15=Roosevelt Sykes  -  Running the Boogie
EXTD=
EXTT0=
EXTT1=
EXTT2=
EXTT3=
EXTT4=
EXTT5=
EXTT6=
EXTT7=
EXTT8=
EXTT9=
EXTT10=
EXTT11=
EXTT12=
EXTT13=
EXTT14=
EXTT15=
PLAYORDER=
